<svg width="233" height="60" viewBox="0 0 233 60" fill="none" xmlns="http://www.w3.org/2000/svg">
<path d="M12.104 47.64C7.752 47.64 4.168 46.424 1.352 43.992C0.541334 43.3947 0.114667 42.7333 0.072 42.008C0.072 41.2827 0.370667 40.6213 0.968 40.024C1.56533 39.4267 2.184 39.1493 2.824 39.192C3.464 39.2347 4.18933 39.5333 5 40.088C6.92 41.752 9.37333 42.584 12.36 42.584C14.2373 42.584 15.7307 42.2427 16.84 41.56C17.9493 40.8773 18.504 39.7467 18.504 38.168C18.504 36.888 17.928 35.9493 16.776 35.352C15.624 34.712 13.576 34.1147 10.632 33.56C8.712 33.176 6.984 32.664 5.448 32.024C3.95467 31.384 2.76 30.4667 1.864 29.272C0.968 28.0347 0.52 26.4347 0.52 24.472C0.52 22.5947 1.032 20.9947 2.056 19.672C3.08 18.3067 4.424 17.2613 6.088 16.536C7.79467 15.8107 9.672 15.448 11.72 15.448C15.432 15.448 18.4187 16.4293 20.68 18.392C21.5333 18.904 22.0027 19.5227 22.088 20.248C22.216 20.9307 22.0027 21.5707 21.448 22.168C20.8933 22.8507 20.296 23.1707 19.656 23.128C19.016 23.0853 18.2693 22.8507 17.416 22.424C16.008 21.1867 14.1307 20.568 11.784 20.568C9.94933 20.568 8.584 20.952 7.688 21.72C6.792 22.4453 6.344 23.32 6.344 24.344C6.344 25.5387 6.856 26.4133 7.88 26.968C8.904 27.5227 10.76 28.0987 13.448 28.696C15.5813 29.1653 17.4587 29.784 19.08 30.552C20.744 31.32 22.024 32.3227 22.92 33.56C23.8587 34.7973 24.328 36.3973 24.328 38.36C24.328 41.304 23.1973 43.5867 20.936 45.208C18.7173 46.8293 15.7733 47.64 12.104 47.64ZM95.403 59.928C93.483 59.928 92.523 58.904 92.523 56.856V19.288C92.523 17.2827 93.3763 16.28 95.083 16.28C96.7897 16.28 97.6643 16.728 97.707 17.624L97.835 20.632C98.9443 19.0107 100.31 17.752 101.931 16.856C103.552 15.96 105.366 15.512 107.371 15.512C110.187 15.512 112.683 16.1733 114.859 17.496C117.035 18.776 118.742 20.632 119.979 23.064C121.259 25.4533 121.899 28.2907 121.899 31.576C121.899 34.8613 121.259 37.72 119.979 40.152C118.742 42.584 117.035 44.4613 114.859 45.784C112.683 47.064 110.187 47.704 107.371 47.704C105.451 47.704 103.723 47.2987 102.187 46.488C100.651 45.6347 99.3497 44.4827 98.283 43.032V56.856C98.283 58.904 97.323 59.928 95.403 59.928ZM107.179 42.456C109.782 42.456 111.936 41.496 113.643 39.576C115.35 37.6133 116.203 34.9467 116.203 31.576C116.203 28.2053 115.35 25.56 113.643 23.64C111.936 21.72 109.782 20.76 107.179 20.76C104.576 20.76 102.422 21.72 100.715 23.64C99.051 25.56 98.219 28.2053 98.219 31.576C98.219 34.9467 99.051 37.6133 100.715 39.576C102.422 41.496 104.576 42.456 107.179 42.456ZM149.571 47.704C146.67 47.704 144.11 47.0853 141.891 45.848C139.673 44.6107 137.945 42.7973 136.707 40.408C135.47 37.976 134.851 35.0533 134.851 31.64C134.851 28.3547 135.47 25.5173 136.707 23.128C137.945 20.696 139.63 18.8187 141.763 17.496C143.939 16.1733 146.435 15.512 149.251 15.512C152.067 15.512 154.457 16.1947 156.419 17.56C158.425 18.8827 159.939 20.5893 160.963 22.68C162.03 24.7707 162.563 26.9253 162.563 29.144C162.563 30.3813 162.307 31.2133 161.795 31.64C161.283 32.024 160.537 32.216 159.555 32.216H140.483C140.569 35.6293 141.422 38.232 143.043 40.024C144.707 41.7733 146.905 42.648 149.635 42.648C152.878 42.648 155.331 41.3467 156.995 38.744C157.678 38.0187 158.318 37.5493 158.915 37.336C159.513 37.08 160.153 37.1867 160.835 37.656C161.561 38.1253 161.966 38.7227 162.051 39.448C162.179 40.1733 161.902 40.9627 161.219 41.816C159.811 43.8213 158.126 45.3147 156.163 46.296C154.243 47.2347 152.046 47.704 149.571 47.704ZM140.803 27.608H156.931C156.59 25.3893 155.737 23.5973 154.371 22.232C153.006 20.8667 151.278 20.184 149.187 20.184C146.969 20.184 145.134 20.824 143.683 22.104C142.233 23.3413 141.273 25.176 140.803 27.608ZM189.921 47.704C187.02 47.704 184.822 47.1493 183.329 46.04C181.836 44.888 181.089 42.712 181.089 39.512V21.272H177.889C175.884 21.272 174.881 20.44 174.881 18.776C174.881 17.9227 175.094 17.304 175.521 16.92C175.99 16.4933 176.78 16.28 177.889 16.28H181.089V8.28C181.089 6.27467 182.049 5.272 183.969 5.272C185.846 5.272 186.785 6.27467 186.785 8.28V16.28H192.673C194.678 16.28 195.681 17.112 195.681 18.776C195.681 20.44 194.678 21.272 192.673 21.272H186.785V38.296C186.785 39.96 187.148 41.0907 187.873 41.688C188.641 42.2427 189.772 42.52 191.265 42.52C191.35 42.52 191.478 42.52 191.649 42.52C192.801 42.52 193.761 42.6267 194.529 42.84C195.297 43.0107 195.681 43.672 195.681 44.824C195.681 46.104 195.084 46.8933 193.889 47.192C192.737 47.5333 191.414 47.704 189.921 47.704ZM220.504 47.64C216.152 47.64 212.568 46.424 209.752 43.992C208.941 43.3947 208.515 42.7333 208.472 42.008C208.472 41.2827 208.771 40.6213 209.368 40.024C209.965 39.4267 210.584 39.1493 211.224 39.192C211.864 39.2347 212.589 39.5333 213.4 40.088C215.32 41.752 217.773 42.584 220.76 42.584C222.637 42.584 224.131 42.2427 225.24 41.56C226.349 40.8773 226.904 39.7467 226.904 38.168C226.904 36.888 226.328 35.9493 225.176 35.352C224.024 34.712 221.976 34.1147 219.032 33.56C217.112 33.176 215.384 32.664 213.848 32.024C212.355 31.384 211.16 30.4667 210.264 29.272C209.368 28.0347 208.92 26.4347 208.92 24.472C208.92 22.5947 209.432 20.9947 210.456 19.672C211.48 18.3067 212.824 17.2613 214.488 16.536C216.195 15.8107 218.072 15.448 220.12 15.448C223.832 15.448 226.819 16.4293 229.08 18.392C229.933 18.904 230.403 19.5227 230.488 20.248C230.616 20.9307 230.403 21.5707 229.848 22.168C229.293 22.8507 228.696 23.1707 228.056 23.128C227.416 23.0853 226.669 22.8507 225.816 22.424C224.408 21.1867 222.531 20.568 220.184 20.568C218.349 20.568 216.984 20.952 216.088 21.72C215.192 22.4453 214.744 23.32 214.744 24.344C214.744 25.5387 215.256 26.4133 216.28 26.968C217.304 27.5227 219.16 28.0987 221.848 28.696C223.981 29.1653 225.859 29.784 227.48 30.552C229.144 31.32 230.424 32.3227 231.32 33.56C232.259 34.7973 232.728 36.3973 232.728 38.36C232.728 41.304 231.597 43.5867 229.336 45.208C227.117 46.8293 224.173 47.64 220.504 47.64Z" fill="#2FAEBF"/>
<path d="M57.3495 48.088C53.2962 48.088 49.6695 47.128 46.4695 45.208C43.2695 43.288 40.7522 40.5787 38.9175 37.08C37.1255 33.5387 36.2295 29.3787 36.2295 24.6C36.2295 19.7787 37.1255 15.6187 38.9175 12.12C40.7522 8.57867 43.2695 5.848 46.4695 3.928C49.6695 1.96533 53.2962 0.983997 57.3495 0.983997C61.4028 0.983997 65.0082 1.96533 68.1655 3.928C71.3655 5.848 73.8615 8.57867 75.6535 12.12C77.4882 15.6187 78.4055 19.7787 78.4055 24.6C78.4055 28.9947 77.6162 32.8987 76.0375 36.312L79.2375 38.744C81.4562 40.4507 81.7122 42.4133 80.0055 44.632C78.2135 46.936 76.2722 47.2773 74.1815 45.656L70.9815 43.224C69.1895 44.8027 67.1415 46.0187 64.8375 46.872C62.5335 47.6827 60.0375 48.088 57.3495 48.088ZM57.3495 40.024C59.9095 40.024 62.1708 39.32 64.1335 37.912L61.7655 36.12C59.5468 34.3707 59.2908 32.408 60.9975 30.232C62.6615 28.0133 64.4108 27.5867 66.2455 28.952L68.8695 31C69.4668 28.9947 69.7655 26.8613 69.7655 24.6C69.7655 21.4853 69.2535 18.776 68.2295 16.472C67.2482 14.168 65.8188 12.376 63.9415 11.096C62.1068 9.77333 59.9095 9.112 57.3495 9.112C54.8322 9.112 52.6348 9.77333 50.7575 11.096C48.9228 12.376 47.4935 14.168 46.4695 16.472C45.4455 18.776 44.9335 21.4853 44.9335 24.6C44.9335 27.672 45.4455 30.36 46.4695 32.664C47.4935 34.968 48.9228 36.7813 50.7575 38.104C52.6348 39.384 54.8322 40.024 57.3495 40.024Z" fill="#F3712D"/>
</svg>
